M48
INCH
T1C0.0118
T2C0.0394
T3C0.0543
%
G90
G05
T1
X6.7146Y-4.3209
X6.8146Y-4.3209
X6.9291Y-3.5433
X6.9291Y-4.3307
X6.9685Y-2.3622
X7.0276Y-1.8504
X7.3291Y-1.811
X7.4016Y-3.5433
X7.4016Y-4.3307
X7.9134Y-3.5433
X7.9134Y-4.2913
X7.9921Y-3.8583
X8.2283Y-4.2913
X8.274Y-1.7913
X8.4252Y-3.5433
X8.4252Y-3.8583
X8.4252Y-4.2913
X8.6146Y-4.3209
T2
X5.9827Y-2.2146
X5.9843Y-1.5551
X5.9843Y-2.8839
X6.0827Y-2.2146
X6.0843Y-1.5551
X6.0843Y-2.8839
X6.1827Y-2.2146
X6.1843Y-1.5551
X6.1843Y-2.8839
X6.2827Y-2.2146
X6.2843Y-1.5551
X6.2843Y-2.8839
X6.3827Y-2.2146
X6.3843Y-1.5551
X6.3843Y-2.8839
X6.4827Y-2.2146
X6.4843Y-1.5551
X6.4843Y-2.8839
X6.5827Y-2.2146
X6.5843Y-1.5551
X6.5843Y-2.8839
X6.6827Y-2.2146
X6.6843Y-1.5551
X6.6843Y-2.8839
X6.9291Y-1.5551
X6.9291Y-2.2146
X6.9291Y-2.8839
X7.0291Y-1.5551
X7.0291Y-2.2146
X7.0291Y-2.8839
X7.1291Y-1.5551
X7.1291Y-2.2146
X7.1291Y-2.8839
X7.2291Y-1.5551
X7.2291Y-2.2146
X7.2291Y-2.8839
X7.3291Y-1.5551
X7.3291Y-2.2146
X7.3291Y-2.8839
X7.4291Y-1.5551
X7.4291Y-2.2146
X7.4291Y-2.8839
X7.5291Y-1.5551
X7.5291Y-2.2146
X7.5291Y-2.8839
X7.6291Y-1.5551
X7.6291Y-2.2146
X7.6291Y-2.8839
X7.874Y-1.5551
X7.874Y-2.2146
X7.874Y-2.8839
X7.974Y-1.5551
X7.974Y-2.2146
X7.974Y-2.8839
X8.074Y-1.5551
X8.074Y-2.2146
X8.074Y-2.8839
X8.174Y-1.5551
X8.174Y-2.2146
X8.174Y-2.8839
X8.274Y-1.5551
X8.274Y-2.2146
X8.274Y-2.8839
X8.374Y-1.5551
X8.374Y-2.2146
X8.374Y-2.8839
X8.474Y-1.5551
X8.474Y-2.2146
X8.474Y-2.8839
X8.574Y-1.5551
X8.574Y-2.2146
X8.574Y-2.8839
T3
G00X6.8291Y-1.3234
M15
G01X6.8693Y-1.3234
M16
G05
G00X6.8291Y-4.1935
M15
G01X6.8693Y-4.1935
M16
G05
G00X7.7161Y-1.3189
M15
G01X7.7563Y-1.3189
M16
G05
G00X7.7161Y-4.189
M15
G01X7.7563Y-4.189
M16
G05
M30
