%TF.GenerationSoftware,KiCad,Pcbnew,8.0.4*%
%TF.CreationDate,2024-08-28T17:55:56-04:00*%
%TF.ProjectId,imu-array,696d752d-6172-4726-9179-2e6b69636164,rev?*%
%TF.SameCoordinates,Original*%
%TF.FileFunction,Legend,Bot*%
%TF.FilePolarity,Positive*%
%FSLAX46Y46*%
G04 Gerber Fmt 4.6, Leading zero omitted, Abs format (unit mm)*
G04 Created by KiCad (PCBNEW 8.0.4) date 2024-08-28 17:55:56*
%MOMM*%
%LPD*%
G01*
G04 APERTURE LIST*
%ADD10C,0.300000*%
%ADD11C,0.000000*%
%ADD12C,0.127000*%
%ADD13C,3.200000*%
%ADD14O,4.344000X2.274000*%
%ADD15O,1.800000X2.400000*%
G04 APERTURE END LIST*
D10*
X174321427Y-111749757D02*
X174464285Y-111678328D01*
X174464285Y-111678328D02*
X174678570Y-111678328D01*
X174678570Y-111678328D02*
X174892856Y-111749757D01*
X174892856Y-111749757D02*
X175035713Y-111892614D01*
X175035713Y-111892614D02*
X175107142Y-112035471D01*
X175107142Y-112035471D02*
X175178570Y-112321185D01*
X175178570Y-112321185D02*
X175178570Y-112535471D01*
X175178570Y-112535471D02*
X175107142Y-112821185D01*
X175107142Y-112821185D02*
X175035713Y-112964042D01*
X175035713Y-112964042D02*
X174892856Y-113106900D01*
X174892856Y-113106900D02*
X174678570Y-113178328D01*
X174678570Y-113178328D02*
X174535713Y-113178328D01*
X174535713Y-113178328D02*
X174321427Y-113106900D01*
X174321427Y-113106900D02*
X174249999Y-113035471D01*
X174249999Y-113035471D02*
X174249999Y-112535471D01*
X174249999Y-112535471D02*
X174535713Y-112535471D01*
X173392856Y-111678328D02*
X173392856Y-112035471D01*
X173749999Y-111892614D02*
X173392856Y-112035471D01*
X173392856Y-112035471D02*
X173035713Y-111892614D01*
X173607142Y-112321185D02*
X173392856Y-112035471D01*
X173392856Y-112035471D02*
X173178570Y-112321185D01*
X172249999Y-111678328D02*
X172249999Y-112035471D01*
X172607142Y-111892614D02*
X172249999Y-112035471D01*
X172249999Y-112035471D02*
X171892856Y-111892614D01*
X172464285Y-112321185D02*
X172249999Y-112035471D01*
X172249999Y-112035471D02*
X172035713Y-112321185D01*
X171107142Y-111678328D02*
X171107142Y-112035471D01*
X171464285Y-111892614D02*
X171107142Y-112035471D01*
X171107142Y-112035471D02*
X170749999Y-111892614D01*
X171321428Y-112321185D02*
X171107142Y-112035471D01*
X171107142Y-112035471D02*
X170892856Y-112321185D01*
X196821427Y-111749757D02*
X196964285Y-111678328D01*
X196964285Y-111678328D02*
X197178570Y-111678328D01*
X197178570Y-111678328D02*
X197392856Y-111749757D01*
X197392856Y-111749757D02*
X197535713Y-111892614D01*
X197535713Y-111892614D02*
X197607142Y-112035471D01*
X197607142Y-112035471D02*
X197678570Y-112321185D01*
X197678570Y-112321185D02*
X197678570Y-112535471D01*
X197678570Y-112535471D02*
X197607142Y-112821185D01*
X197607142Y-112821185D02*
X197535713Y-112964042D01*
X197535713Y-112964042D02*
X197392856Y-113106900D01*
X197392856Y-113106900D02*
X197178570Y-113178328D01*
X197178570Y-113178328D02*
X197035713Y-113178328D01*
X197035713Y-113178328D02*
X196821427Y-113106900D01*
X196821427Y-113106900D02*
X196749999Y-113035471D01*
X196749999Y-113035471D02*
X196749999Y-112535471D01*
X196749999Y-112535471D02*
X197035713Y-112535471D01*
X195892856Y-111678328D02*
X195892856Y-112035471D01*
X196249999Y-111892614D02*
X195892856Y-112035471D01*
X195892856Y-112035471D02*
X195535713Y-111892614D01*
X196107142Y-112321185D02*
X195892856Y-112035471D01*
X195892856Y-112035471D02*
X195678570Y-112321185D01*
X194749999Y-111678328D02*
X194749999Y-112035471D01*
X195107142Y-111892614D02*
X194749999Y-112035471D01*
X194749999Y-112035471D02*
X194392856Y-111892614D01*
X194964285Y-112321185D02*
X194749999Y-112035471D01*
X194749999Y-112035471D02*
X194535713Y-112321185D01*
X193607142Y-111678328D02*
X193607142Y-112035471D01*
X193964285Y-111892614D02*
X193607142Y-112035471D01*
X193607142Y-112035471D02*
X193249999Y-111892614D01*
X193821428Y-112321185D02*
X193607142Y-112035471D01*
X193607142Y-112035471D02*
X193392856Y-112321185D01*
D11*
%TO.C,G\u002A\u002A\u002A*%
G36*
X173842347Y-108936225D02*
G01*
X174245443Y-110102551D01*
X174400339Y-110541432D01*
X174585003Y-110968190D01*
X174791243Y-111229893D01*
X175078451Y-111368868D01*
X175506021Y-111427439D01*
X176133346Y-111447933D01*
X176241900Y-111451441D01*
X176769106Y-111520282D01*
X177072886Y-111666910D01*
X177099272Y-111693438D01*
X177237434Y-111863804D01*
X177261038Y-112044695D01*
X177190393Y-112355056D01*
X177144865Y-112491918D01*
X177057547Y-112584988D01*
X176878241Y-112625717D01*
X176551423Y-112625546D01*
X176021570Y-112595917D01*
X175754981Y-112580136D01*
X175326045Y-112564715D01*
X175088076Y-112581977D01*
X174994688Y-112638499D01*
X174999495Y-112740861D01*
X175107502Y-113183005D01*
X175190911Y-113701311D01*
X175234906Y-114193431D01*
X175232927Y-114583975D01*
X175178417Y-114797552D01*
X174932536Y-114917225D01*
X174504478Y-114936263D01*
X173977871Y-114897449D01*
X173799139Y-113698725D01*
X173620407Y-112500000D01*
X172557422Y-112500000D01*
X172072046Y-112489679D01*
X171556036Y-112429840D01*
X171240316Y-112302475D01*
X171091800Y-112091505D01*
X171077403Y-111780855D01*
X171120919Y-111398470D01*
X172190051Y-111360831D01*
X172219066Y-111359776D01*
X172778471Y-111321973D01*
X173134396Y-111260631D01*
X173259184Y-111180415D01*
X173258950Y-111173650D01*
X173218762Y-110969559D01*
X173122958Y-110598842D01*
X172990852Y-110136630D01*
X172853717Y-109636685D01*
X172790232Y-109231977D01*
X172845378Y-108998449D01*
X173030099Y-108898853D01*
X173355336Y-108895942D01*
X173842347Y-108936225D01*
G37*
G36*
X196342347Y-108936225D02*
G01*
X196745443Y-110102551D01*
X196900339Y-110541432D01*
X197085003Y-110968190D01*
X197291243Y-111229893D01*
X197578451Y-111368868D01*
X198006021Y-111427439D01*
X198633346Y-111447933D01*
X198741900Y-111451441D01*
X199269106Y-111520282D01*
X199572886Y-111666910D01*
X199599272Y-111693438D01*
X199737434Y-111863804D01*
X199761038Y-112044695D01*
X199690393Y-112355056D01*
X199644865Y-112491918D01*
X199557547Y-112584988D01*
X199378241Y-112625717D01*
X199051423Y-112625546D01*
X198521570Y-112595917D01*
X198254981Y-112580136D01*
X197826045Y-112564715D01*
X197588076Y-112581977D01*
X197494688Y-112638499D01*
X197499495Y-112740861D01*
X197607502Y-113183005D01*
X197690911Y-113701311D01*
X197734906Y-114193431D01*
X197732927Y-114583975D01*
X197678417Y-114797552D01*
X197432536Y-114917225D01*
X197004478Y-114936263D01*
X196477871Y-114897449D01*
X196299139Y-113698725D01*
X196120407Y-112500000D01*
X195057422Y-112500000D01*
X194572046Y-112489679D01*
X194056036Y-112429840D01*
X193740316Y-112302475D01*
X193591800Y-112091505D01*
X193577403Y-111780855D01*
X193620919Y-111398470D01*
X194690051Y-111360831D01*
X194719066Y-111359776D01*
X195278471Y-111321973D01*
X195634396Y-111260631D01*
X195759184Y-111180415D01*
X195758950Y-111173650D01*
X195718762Y-110969559D01*
X195622958Y-110598842D01*
X195490852Y-110136630D01*
X195353717Y-109636685D01*
X195290232Y-109231977D01*
X195345378Y-108998449D01*
X195530099Y-108898853D01*
X195855336Y-108895942D01*
X196342347Y-108936225D01*
G37*
D12*
%TO.C,BT2*%
X173970000Y-28585000D02*
X173970000Y-30585000D01*
X173970000Y-109845000D02*
X173970000Y-111845000D01*
X172970000Y-110845000D02*
X174970000Y-110845000D01*
X184460000Y-108695000D02*
X163480000Y-108695000D01*
X163480000Y-108695000D02*
X163480000Y-31735000D01*
X163480000Y-31735000D02*
X184460000Y-31735000D01*
X184460000Y-31735000D02*
X184460000Y-108695000D01*
%TO.C,BT1*%
X196500000Y-28470000D02*
X196500000Y-30470000D01*
X196500000Y-109730000D02*
X196500000Y-111730000D01*
X195500000Y-110730000D02*
X197500000Y-110730000D01*
X206990000Y-108580000D02*
X186010000Y-108580000D01*
X186010000Y-108580000D02*
X186010000Y-31620000D01*
X186010000Y-31620000D02*
X206990000Y-31620000D01*
X206990000Y-31620000D02*
X206990000Y-108580000D01*
%TD*%
%LPC*%
D13*
%TO.C,BT2*%
X173970000Y-42405000D03*
X173970000Y-98020000D03*
D14*
X173970000Y-33615000D03*
X173970000Y-106515000D03*
%TD*%
D13*
%TO.C,BT1*%
X196500000Y-42290000D03*
X196500000Y-97905000D03*
D14*
X196500000Y-33500000D03*
X196500000Y-106400000D03*
%TD*%
D13*
%TO.C,H4*%
X153000000Y-117000000D03*
%TD*%
%TO.C,H3*%
X217000000Y-116500000D03*
%TD*%
%TO.C,H2*%
X217500000Y-33000000D03*
%TD*%
%TO.C,H1*%
X152500000Y-33000000D03*
%TD*%
D15*
%TO.C,U9*%
X200000000Y-73250000D03*
X202540000Y-73250000D03*
X205080000Y-73250000D03*
X207620000Y-73250000D03*
X210160000Y-73250000D03*
X212700000Y-73250000D03*
X215240000Y-73250000D03*
X217780000Y-73250000D03*
%TD*%
%TO.C,U8*%
X176000000Y-73250000D03*
X178540000Y-73250000D03*
X181080000Y-73250000D03*
X183620000Y-73250000D03*
X186160000Y-73250000D03*
X188700000Y-73250000D03*
X191240000Y-73250000D03*
X193780000Y-73250000D03*
%TD*%
%TO.C,U7*%
X152000000Y-73250000D03*
X154540000Y-73250000D03*
X157080000Y-73250000D03*
X159620000Y-73250000D03*
X162160000Y-73250000D03*
X164700000Y-73250000D03*
X167240000Y-73250000D03*
X169780000Y-73250000D03*
%TD*%
%TO.C,U6*%
X200000000Y-56250000D03*
X202540000Y-56250000D03*
X205080000Y-56250000D03*
X207620000Y-56250000D03*
X210160000Y-56250000D03*
X212700000Y-56250000D03*
X215240000Y-56250000D03*
X217780000Y-56250000D03*
%TD*%
%TO.C,U5*%
X176000000Y-56250000D03*
X178540000Y-56250000D03*
X181080000Y-56250000D03*
X183620000Y-56250000D03*
X186160000Y-56250000D03*
X188700000Y-56250000D03*
X191240000Y-56250000D03*
X193780000Y-56250000D03*
%TD*%
%TO.C,U4*%
X151960000Y-56250000D03*
X154500000Y-56250000D03*
X157040000Y-56250000D03*
X159580000Y-56250000D03*
X162120000Y-56250000D03*
X164660000Y-56250000D03*
X167200000Y-56250000D03*
X169740000Y-56250000D03*
%TD*%
%TO.C,U3*%
X200000000Y-39500000D03*
X202540000Y-39500000D03*
X205080000Y-39500000D03*
X207620000Y-39500000D03*
X210160000Y-39500000D03*
X212700000Y-39500000D03*
X215240000Y-39500000D03*
X217780000Y-39500000D03*
%TD*%
%TO.C,U2*%
X176000000Y-39500000D03*
X178540000Y-39500000D03*
X181080000Y-39500000D03*
X183620000Y-39500000D03*
X186160000Y-39500000D03*
X188700000Y-39500000D03*
X191240000Y-39500000D03*
X193780000Y-39500000D03*
%TD*%
%TO.C,U1*%
X152000000Y-39500000D03*
X154540000Y-39500000D03*
X157080000Y-39500000D03*
X159620000Y-39500000D03*
X162160000Y-39500000D03*
X164700000Y-39500000D03*
X167240000Y-39500000D03*
X169780000Y-39500000D03*
%TD*%
%LPD*%
M02*
