%TF.GenerationSoftware,KiCad,Pcbnew,8.0.4*%
%TF.CreationDate,2024-08-28T17:55:56-04:00*%
%TF.ProjectId,imu-array,696d752d-6172-4726-9179-2e6b69636164,rev?*%
%TF.SameCoordinates,Original*%
%TF.FileFunction,Copper,L1,Top*%
%TF.FilePolarity,Positive*%
%FSLAX46Y46*%
G04 Gerber Fmt 4.6, Leading zero omitted, Abs format (unit mm)*
G04 Created by KiCad (PCBNEW 8.0.4) date 2024-08-28 17:55:56*
%MOMM*%
%LPD*%
G01*
G04 APERTURE LIST*
G04 Aperture macros list*
%AMRoundRect*
0 Rectangle with rounded corners*
0 $1 Rounding radius*
0 $2 $3 $4 $5 $6 $7 $8 $9 X,Y pos of 4 corners*
0 Add a 4 corners polygon primitive as box body*
4,1,4,$2,$3,$4,$5,$6,$7,$8,$9,$2,$3,0*
0 Add four circle primitives for the rounded corners*
1,1,$1+$1,$2,$3*
1,1,$1+$1,$4,$5*
1,1,$1+$1,$6,$7*
1,1,$1+$1,$8,$9*
0 Add four rect primitives between the rounded corners*
20,1,$1+$1,$2,$3,$4,$5,0*
20,1,$1+$1,$4,$5,$6,$7,0*
20,1,$1+$1,$6,$7,$8,$9,0*
20,1,$1+$1,$8,$9,$2,$3,0*%
G04 Aperture macros list end*
%TA.AperFunction,ComponentPad*%
%ADD10O,4.140000X2.070000*%
%TD*%
%TA.AperFunction,ComponentPad*%
%ADD11O,1.800000X2.400000*%
%TD*%
%TA.AperFunction,SMDPad,CuDef*%
%ADD12RoundRect,0.375000X0.375000X1.125000X-0.375000X1.125000X-0.375000X-1.125000X0.375000X-1.125000X0*%
%TD*%
%TA.AperFunction,ViaPad*%
%ADD13C,0.600000*%
%TD*%
%TA.AperFunction,Conductor*%
%ADD14C,1.000000*%
%TD*%
G04 APERTURE END LIST*
D10*
%TO.P,BT2,-*%
%TO.N,GND*%
X173970000Y-33615000D03*
%TO.P,BT2,+*%
%TO.N,BATT+*%
X173970000Y-106515000D03*
%TD*%
%TO.P,BT1,-*%
%TO.N,GND*%
X196500000Y-33500000D03*
%TO.P,BT1,+*%
%TO.N,BATT+*%
X196500000Y-106400000D03*
%TD*%
D11*
%TO.P,U9,1,INT*%
%TO.N,unconnected-(U9-INT-Pad1)*%
X200000000Y-73250000D03*
%TO.P,U9,2,ADO*%
%TO.N,MPU9*%
X202540000Y-73250000D03*
%TO.P,U9,3,XCL*%
%TO.N,unconnected-(U9-XCL-Pad3)*%
X205080000Y-73250000D03*
%TO.P,U9,4,XDA*%
%TO.N,unconnected-(U9-XDA-Pad4)*%
X207620000Y-73250000D03*
%TO.P,U9,5,SDA*%
%TO.N,SDA*%
X210160000Y-73250000D03*
%TO.P,U9,6,SCL*%
%TO.N,SCL*%
X212700000Y-73250000D03*
%TO.P,U9,7,GND*%
%TO.N,GND*%
X215240000Y-73250000D03*
%TO.P,U9,8,VCC*%
%TO.N,3v3*%
X217780000Y-73250000D03*
%TD*%
%TO.P,U8,1,INT*%
%TO.N,unconnected-(U8-INT-Pad1)*%
X176000000Y-73250000D03*
%TO.P,U8,2,ADO*%
%TO.N,MPU8*%
X178540000Y-73250000D03*
%TO.P,U8,3,XCL*%
%TO.N,unconnected-(U8-XCL-Pad3)*%
X181080000Y-73250000D03*
%TO.P,U8,4,XDA*%
%TO.N,unconnected-(U8-XDA-Pad4)*%
X183620000Y-73250000D03*
%TO.P,U8,5,SDA*%
%TO.N,SDA*%
X186160000Y-73250000D03*
%TO.P,U8,6,SCL*%
%TO.N,SCL*%
X188700000Y-73250000D03*
%TO.P,U8,7,GND*%
%TO.N,GND*%
X191240000Y-73250000D03*
%TO.P,U8,8,VCC*%
%TO.N,3v3*%
X193780000Y-73250000D03*
%TD*%
%TO.P,U7,1,INT*%
%TO.N,unconnected-(U7-INT-Pad1)*%
X152000000Y-73250000D03*
%TO.P,U7,2,ADO*%
%TO.N,MPU7*%
X154540000Y-73250000D03*
%TO.P,U7,3,XCL*%
%TO.N,unconnected-(U7-XCL-Pad3)*%
X157080000Y-73250000D03*
%TO.P,U7,4,XDA*%
%TO.N,unconnected-(U7-XDA-Pad4)*%
X159620000Y-73250000D03*
%TO.P,U7,5,SDA*%
%TO.N,SDA*%
X162160000Y-73250000D03*
%TO.P,U7,6,SCL*%
%TO.N,SCL*%
X164700000Y-73250000D03*
%TO.P,U7,7,GND*%
%TO.N,GND*%
X167240000Y-73250000D03*
%TO.P,U7,8,VCC*%
%TO.N,3v3*%
X169780000Y-73250000D03*
%TD*%
%TO.P,U6,1,INT*%
%TO.N,unconnected-(U6-INT-Pad1)*%
X200000000Y-56250000D03*
%TO.P,U6,2,ADO*%
%TO.N,MPU6*%
X202540000Y-56250000D03*
%TO.P,U6,3,XCL*%
%TO.N,unconnected-(U6-XCL-Pad3)*%
X205080000Y-56250000D03*
%TO.P,U6,4,XDA*%
%TO.N,unconnected-(U6-XDA-Pad4)*%
X207620000Y-56250000D03*
%TO.P,U6,5,SDA*%
%TO.N,SDA*%
X210160000Y-56250000D03*
%TO.P,U6,6,SCL*%
%TO.N,SCL*%
X212700000Y-56250000D03*
%TO.P,U6,7,GND*%
%TO.N,GND*%
X215240000Y-56250000D03*
%TO.P,U6,8,VCC*%
%TO.N,3v3*%
X217780000Y-56250000D03*
%TD*%
%TO.P,U5,1,INT*%
%TO.N,unconnected-(U5-INT-Pad1)*%
X176000000Y-56250000D03*
%TO.P,U5,2,ADO*%
%TO.N,MPU5*%
X178540000Y-56250000D03*
%TO.P,U5,3,XCL*%
%TO.N,unconnected-(U5-XCL-Pad3)*%
X181080000Y-56250000D03*
%TO.P,U5,4,XDA*%
%TO.N,unconnected-(U5-XDA-Pad4)*%
X183620000Y-56250000D03*
%TO.P,U5,5,SDA*%
%TO.N,SDA*%
X186160000Y-56250000D03*
%TO.P,U5,6,SCL*%
%TO.N,SCL*%
X188700000Y-56250000D03*
%TO.P,U5,7,GND*%
%TO.N,GND*%
X191240000Y-56250000D03*
%TO.P,U5,8,VCC*%
%TO.N,3v3*%
X193780000Y-56250000D03*
%TD*%
%TO.P,U4,1,INT*%
%TO.N,unconnected-(U4-INT-Pad1)*%
X151960000Y-56250000D03*
%TO.P,U4,2,ADO*%
%TO.N,MPU4*%
X154500000Y-56250000D03*
%TO.P,U4,3,XCL*%
%TO.N,unconnected-(U4-XCL-Pad3)*%
X157040000Y-56250000D03*
%TO.P,U4,4,XDA*%
%TO.N,unconnected-(U4-XDA-Pad4)*%
X159580000Y-56250000D03*
%TO.P,U4,5,SDA*%
%TO.N,SDA*%
X162120000Y-56250000D03*
%TO.P,U4,6,SCL*%
%TO.N,SCL*%
X164660000Y-56250000D03*
%TO.P,U4,7,GND*%
%TO.N,GND*%
X167200000Y-56250000D03*
%TO.P,U4,8,VCC*%
%TO.N,3v3*%
X169740000Y-56250000D03*
%TD*%
%TO.P,U3,1,INT*%
%TO.N,unconnected-(U3-INT-Pad1)*%
X200000000Y-39500000D03*
%TO.P,U3,2,ADO*%
%TO.N,MPU3*%
X202540000Y-39500000D03*
%TO.P,U3,3,XCL*%
%TO.N,unconnected-(U3-XCL-Pad3)*%
X205080000Y-39500000D03*
%TO.P,U3,4,XDA*%
%TO.N,unconnected-(U3-XDA-Pad4)*%
X207620000Y-39500000D03*
%TO.P,U3,5,SDA*%
%TO.N,SDA*%
X210160000Y-39500000D03*
%TO.P,U3,6,SCL*%
%TO.N,SCL*%
X212700000Y-39500000D03*
%TO.P,U3,7,GND*%
%TO.N,GND*%
X215240000Y-39500000D03*
%TO.P,U3,8,VCC*%
%TO.N,3v3*%
X217780000Y-39500000D03*
%TD*%
%TO.P,U2,1,INT*%
%TO.N,unconnected-(U2-INT-Pad1)*%
X176000000Y-39500000D03*
%TO.P,U2,2,ADO*%
%TO.N,MPU2*%
X178540000Y-39500000D03*
%TO.P,U2,3,XCL*%
%TO.N,unconnected-(U2-XCL-Pad3)*%
X181080000Y-39500000D03*
%TO.P,U2,4,XDA*%
%TO.N,unconnected-(U2-XDA-Pad4)*%
X183620000Y-39500000D03*
%TO.P,U2,5,SDA*%
%TO.N,SDA*%
X186160000Y-39500000D03*
%TO.P,U2,6,SCL*%
%TO.N,SCL*%
X188700000Y-39500000D03*
%TO.P,U2,7,GND*%
%TO.N,GND*%
X191240000Y-39500000D03*
%TO.P,U2,8,VCC*%
%TO.N,3v3*%
X193780000Y-39500000D03*
%TD*%
%TO.P,U1,1,INT*%
%TO.N,unconnected-(U1-INT-Pad1)*%
X152000000Y-39500000D03*
%TO.P,U1,2,ADO*%
%TO.N,MPU1*%
X154540000Y-39500000D03*
%TO.P,U1,3,XCL*%
%TO.N,unconnected-(U1-XCL-Pad3)*%
X157080000Y-39500000D03*
%TO.P,U1,4,XDA*%
%TO.N,unconnected-(U1-XDA-Pad4)*%
X159620000Y-39500000D03*
%TO.P,U1,5,SDA*%
%TO.N,SDA*%
X162160000Y-39500000D03*
%TO.P,U1,6,SCL*%
%TO.N,SCL*%
X164700000Y-39500000D03*
%TO.P,U1,7,GND*%
%TO.N,GND*%
X167240000Y-39500000D03*
%TO.P,U1,8,VCC*%
%TO.N,3v3*%
X169780000Y-39500000D03*
%TD*%
D12*
%TO.P,A1,1,GP0*%
%TO.N,MPU1*%
X218810000Y-89750000D03*
%TO.P,A1,2,GP1*%
%TO.N,MPU2*%
X216270000Y-89750000D03*
%TO.P,A1,3,GND*%
%TO.N,GND*%
X213730000Y-89750000D03*
%TO.P,A1,4,GP2*%
%TO.N,MPU3*%
X211190000Y-89750000D03*
%TO.P,A1,5,GP3*%
%TO.N,MPU4*%
X208650000Y-89750000D03*
%TO.P,A1,6,GP4*%
%TO.N,MPU5*%
X206110000Y-89750000D03*
%TO.P,A1,7,GP5*%
%TO.N,MPU6*%
X203570000Y-89750000D03*
%TO.P,A1,8,GND*%
%TO.N,GND*%
X201030000Y-89750000D03*
%TO.P,A1,9,GP6*%
%TO.N,MPU7*%
X198490000Y-89750000D03*
%TO.P,A1,10,GP7*%
%TO.N,MPU8*%
X195950000Y-89750000D03*
%TO.P,A1,11,GP8*%
%TO.N,MPU9*%
X193410000Y-89750000D03*
%TO.P,A1,12,GP9*%
%TO.N,unconnected-(A1-GP9-Pad12)*%
X190870000Y-89750000D03*
%TO.P,A1,13,GND*%
%TO.N,GND*%
X188330000Y-89750000D03*
%TO.P,A1,14,GP10*%
%TO.N,unconnected-(A1-GP10-Pad14)*%
X185790000Y-89750000D03*
%TO.P,A1,15,GP11*%
%TO.N,unconnected-(A1-GP11-Pad15)*%
X183250000Y-89750000D03*
%TO.P,A1,16,GP12*%
%TO.N,unconnected-(A1-GP12-Pad16)*%
X180710000Y-89750000D03*
%TO.P,A1,17,GP13*%
%TO.N,unconnected-(A1-GP13-Pad17)*%
X178170000Y-89750000D03*
%TO.P,A1,18,GND*%
%TO.N,GND*%
X175630000Y-89750000D03*
%TO.P,A1,19,GP14*%
%TO.N,unconnected-(A1-GP14-Pad19)*%
X173090000Y-89750000D03*
%TO.P,A1,20,GP15*%
%TO.N,unconnected-(A1-GP15-Pad20)*%
X170550000Y-89750000D03*
%TO.P,A1,21,GP16*%
%TO.N,SDA*%
X170550000Y-109750000D03*
%TO.P,A1,22,GP17*%
%TO.N,SCL*%
X173090000Y-109750000D03*
%TO.P,A1,23,GND*%
%TO.N,GND*%
X175630000Y-109750000D03*
%TO.P,A1,24,GP18*%
%TO.N,unconnected-(A1-GP18-Pad24)*%
X178170000Y-109750000D03*
%TO.P,A1,25,GP19*%
%TO.N,unconnected-(A1-GP19-Pad25)*%
X180710000Y-109750000D03*
%TO.P,A1,26,GP20*%
%TO.N,unconnected-(A1-GP20-Pad26)*%
X183250000Y-109750000D03*
%TO.P,A1,27,GP21*%
%TO.N,unconnected-(A1-GP21-Pad27)*%
X185790000Y-109750000D03*
%TO.P,A1,28,GND*%
%TO.N,GND*%
X188330000Y-109750000D03*
%TO.P,A1,29,GP22*%
%TO.N,unconnected-(A1-GP22-Pad29)*%
X190870000Y-109750000D03*
%TO.P,A1,30,RUN*%
%TO.N,unconnected-(A1-RUN-Pad30)*%
X193410000Y-109750000D03*
%TO.P,A1,31,ADC0/GP26*%
%TO.N,unconnected-(A1-ADC0{slash}GP26-Pad31)*%
X195950000Y-109750000D03*
%TO.P,A1,32,ADC1/GP27*%
%TO.N,unconnected-(A1-ADC1{slash}GP27-Pad32)*%
X198490000Y-109750000D03*
%TO.P,A1,33,GND*%
%TO.N,GND*%
X201030000Y-109750000D03*
%TO.P,A1,34,ADC2/GP28*%
%TO.N,unconnected-(A1-ADC2{slash}GP28-Pad34)*%
X203570000Y-109750000D03*
%TO.P,A1,35,ADC_VREF*%
%TO.N,unconnected-(A1-ADC_VREF-Pad35)*%
X206110000Y-109750000D03*
%TO.P,A1,36,3V3(OUT)*%
%TO.N,3v3*%
X208650000Y-109750000D03*
%TO.P,A1,37,~{3V3_EN}*%
%TO.N,unconnected-(A1-~{3V3_EN}-Pad37)*%
X211190000Y-109750000D03*
%TO.P,A1,38,GND*%
%TO.N,GND*%
X213730000Y-109750000D03*
%TO.P,A1,39,VSYS*%
%TO.N,unconnected-(A1-VSYS-Pad39)*%
X216270000Y-109750000D03*
%TO.P,A1,40,VBUS*%
%TO.N,BATT+*%
X218810000Y-109750000D03*
%TD*%
D13*
%TO.N,BATT+*%
X218810000Y-109750000D03*
%TO.N,MPU2*%
X214000000Y-98000000D03*
X178500000Y-47000000D03*
%TO.N,MPU5*%
X203000000Y-98000000D03*
X177000000Y-60000000D03*
%TO.N,SDA*%
X186160000Y-46000000D03*
X210160000Y-45500000D03*
X170550000Y-109750000D03*
%TO.N,SCL*%
X173090000Y-109750000D03*
%TO.N,3v3*%
X209000000Y-109000000D03*
%TO.N,GND*%
X214000000Y-109000000D03*
X201000000Y-109000000D03*
X188000000Y-110000000D03*
X176000000Y-110000000D03*
X176000000Y-90000000D03*
X188000000Y-90000000D03*
X201000000Y-90000000D03*
X214000000Y-90000000D03*
%TD*%
D14*
%TO.N,MPU3*%
X211190000Y-88810000D02*
X211190000Y-89750000D01*
X220580000Y-55615534D02*
X220580000Y-79420000D01*
X208000000Y-46750000D02*
X211714466Y-46750000D01*
X220580000Y-79420000D02*
X211190000Y-88810000D01*
X202500000Y-41250000D02*
X208000000Y-46750000D01*
X211714466Y-46750000D02*
X220580000Y-55615534D01*
X202500000Y-39540000D02*
X202500000Y-41250000D01*
X202540000Y-39500000D02*
X202500000Y-39540000D01*
%TO.N,MPU9*%
X202540000Y-78460000D02*
X202540000Y-73250000D01*
X193410000Y-87590000D02*
X202540000Y-78460000D01*
X193410000Y-89750000D02*
X193410000Y-87590000D01*
%TO.N,MPU1*%
X167100000Y-104100000D02*
X209900000Y-104100000D01*
X209900000Y-104100000D02*
X218810000Y-95190000D01*
X218810000Y-95190000D02*
X218810000Y-89750000D01*
X149040473Y-45299527D02*
X149078731Y-86078731D01*
X154540000Y-39800000D02*
X149040473Y-45299527D01*
X149078731Y-86078731D02*
X167100000Y-104100000D01*
X154540000Y-39500000D02*
X154540000Y-39800000D01*
%TO.N,MPU4*%
X154500000Y-57755901D02*
X154500000Y-56250000D01*
X150400000Y-61855901D02*
X154500000Y-57755901D01*
X167597056Y-102900000D02*
X150400000Y-85702944D01*
X208650000Y-95250000D02*
X201000000Y-102900000D01*
X201000000Y-102900000D02*
X167597056Y-102900000D01*
X208650000Y-89750000D02*
X208650000Y-95250000D01*
X150400000Y-85702944D02*
X150400000Y-61855901D01*
%TO.N,MPU7*%
X198490000Y-90510000D02*
X198490000Y-89750000D01*
X187300000Y-101700000D02*
X198490000Y-90510000D01*
X168094112Y-101700000D02*
X187300000Y-101700000D01*
X154540000Y-73250000D02*
X154540000Y-88145888D01*
X154540000Y-88145888D02*
X168094112Y-101700000D01*
%TO.N,MPU8*%
X178540000Y-73272742D02*
X178540000Y-73250000D01*
X161000000Y-90812742D02*
X178540000Y-73272742D01*
X168591168Y-100500000D02*
X161000000Y-92908832D01*
X186000000Y-100500000D02*
X168591168Y-100500000D01*
X195950000Y-90550000D02*
X186000000Y-100500000D01*
X195950000Y-89750000D02*
X195950000Y-90550000D01*
X161000000Y-92908832D02*
X161000000Y-90812742D01*
%TO.N,SDA*%
X186000000Y-39660000D02*
X186160000Y-39500000D01*
X186000000Y-45840000D02*
X186000000Y-39660000D01*
X186160000Y-46000000D02*
X186000000Y-45840000D01*
X210000000Y-45340000D02*
X210000000Y-39660000D01*
X210160000Y-45500000D02*
X210000000Y-45340000D01*
X210000000Y-39660000D02*
X210160000Y-39500000D01*
%TO.N,MPU2*%
X178540000Y-46960000D02*
X178540000Y-39500000D01*
X178500000Y-47000000D02*
X178540000Y-46960000D01*
%TO.N,MPU6*%
X203570000Y-88250000D02*
X203570000Y-89750000D01*
X211000000Y-87000000D02*
X204820000Y-87000000D01*
X219380000Y-78620000D02*
X211000000Y-87000000D01*
X204820000Y-87000000D02*
X203570000Y-88250000D01*
X212000000Y-59000000D02*
X219380000Y-66380000D01*
X219380000Y-66380000D02*
X219380000Y-78620000D01*
X205267258Y-59000000D02*
X212000000Y-59000000D01*
X202540000Y-56272742D02*
X205267258Y-59000000D01*
X202540000Y-56250000D02*
X202540000Y-56272742D01*
%TO.N,MPU5*%
X178540000Y-58460000D02*
X178540000Y-56250000D01*
X177000000Y-60000000D02*
X178540000Y-58460000D01*
%TO.N,MPU2*%
X214000000Y-98000000D02*
X216270000Y-95730000D01*
X216270000Y-95730000D02*
X216270000Y-89750000D01*
%TO.N,MPU5*%
X206110000Y-94890000D02*
X206110000Y-89750000D01*
X203000000Y-98000000D02*
X206110000Y-94890000D01*
%TO.N,GND*%
X213750000Y-89750000D02*
X214000000Y-90000000D01*
X213730000Y-89750000D02*
X213750000Y-89750000D01*
%TD*%
M02*
