%TF.GenerationSoftware,KiCad,Pcbnew,8.0.4*%
%TF.CreationDate,2024-08-28T17:55:56-04:00*%
%TF.ProjectId,imu-array,696d752d-6172-4726-9179-2e6b69636164,rev?*%
%TF.SameCoordinates,Original*%
%TF.FileFunction,Other,Comment*%
%FSLAX46Y46*%
G04 Gerber Fmt 4.6, Leading zero omitted, Abs format (unit mm)*
G04 Created by KiCad (PCBNEW 8.0.4) date 2024-08-28 17:55:56*
%MOMM*%
%LPD*%
G01*
G04 APERTURE LIST*
%ADD10C,0.300000*%
%ADD11C,0.150000*%
G04 APERTURE END LIST*
D10*
X165749757Y-101366916D02*
X165678328Y-101509774D01*
X165678328Y-101509774D02*
X165678328Y-101724059D01*
X165678328Y-101724059D02*
X165749757Y-101938345D01*
X165749757Y-101938345D02*
X165892614Y-102081202D01*
X165892614Y-102081202D02*
X166035471Y-102152631D01*
X166035471Y-102152631D02*
X166321185Y-102224059D01*
X166321185Y-102224059D02*
X166535471Y-102224059D01*
X166535471Y-102224059D02*
X166821185Y-102152631D01*
X166821185Y-102152631D02*
X166964042Y-102081202D01*
X166964042Y-102081202D02*
X167106900Y-101938345D01*
X167106900Y-101938345D02*
X167178328Y-101724059D01*
X167178328Y-101724059D02*
X167178328Y-101581202D01*
X167178328Y-101581202D02*
X167106900Y-101366916D01*
X167106900Y-101366916D02*
X167035471Y-101295488D01*
X167035471Y-101295488D02*
X166535471Y-101295488D01*
X166535471Y-101295488D02*
X166535471Y-101581202D01*
X165678328Y-100438345D02*
X166035471Y-100438345D01*
X165892614Y-100795488D02*
X166035471Y-100438345D01*
X166035471Y-100438345D02*
X165892614Y-100081202D01*
X166321185Y-100652631D02*
X166035471Y-100438345D01*
X166035471Y-100438345D02*
X166321185Y-100224059D01*
X165678328Y-99295488D02*
X166035471Y-99295488D01*
X165892614Y-99652631D02*
X166035471Y-99295488D01*
X166035471Y-99295488D02*
X165892614Y-98938345D01*
X166321185Y-99509774D02*
X166035471Y-99295488D01*
X166035471Y-99295488D02*
X166321185Y-99081202D01*
X165678328Y-98152631D02*
X166035471Y-98152631D01*
X165892614Y-98509774D02*
X166035471Y-98152631D01*
X166035471Y-98152631D02*
X165892614Y-97795488D01*
X166321185Y-98366917D02*
X166035471Y-98152631D01*
X166035471Y-98152631D02*
X166321185Y-97938345D01*
X155678572Y-99999757D02*
X155535715Y-99928328D01*
X155535715Y-99928328D02*
X155321429Y-99928328D01*
X155321429Y-99928328D02*
X155107143Y-99999757D01*
X155107143Y-99999757D02*
X154964286Y-100142614D01*
X154964286Y-100142614D02*
X154892857Y-100285471D01*
X154892857Y-100285471D02*
X154821429Y-100571185D01*
X154821429Y-100571185D02*
X154821429Y-100785471D01*
X154821429Y-100785471D02*
X154892857Y-101071185D01*
X154892857Y-101071185D02*
X154964286Y-101214042D01*
X154964286Y-101214042D02*
X155107143Y-101356900D01*
X155107143Y-101356900D02*
X155321429Y-101428328D01*
X155321429Y-101428328D02*
X155464286Y-101428328D01*
X155464286Y-101428328D02*
X155678572Y-101356900D01*
X155678572Y-101356900D02*
X155750000Y-101285471D01*
X155750000Y-101285471D02*
X155750000Y-100785471D01*
X155750000Y-100785471D02*
X155464286Y-100785471D01*
X156607143Y-99928328D02*
X156607143Y-100285471D01*
X156250000Y-100142614D02*
X156607143Y-100285471D01*
X156607143Y-100285471D02*
X156964286Y-100142614D01*
X156392857Y-100571185D02*
X156607143Y-100285471D01*
X156607143Y-100285471D02*
X156821429Y-100571185D01*
X157750000Y-99928328D02*
X157750000Y-100285471D01*
X157392857Y-100142614D02*
X157750000Y-100285471D01*
X157750000Y-100285471D02*
X158107143Y-100142614D01*
X157535714Y-100571185D02*
X157750000Y-100285471D01*
X157750000Y-100285471D02*
X157964286Y-100571185D01*
X158892857Y-99928328D02*
X158892857Y-100285471D01*
X158535714Y-100142614D02*
X158892857Y-100285471D01*
X158892857Y-100285471D02*
X159250000Y-100142614D01*
X158678571Y-100571185D02*
X158892857Y-100285471D01*
X158892857Y-100285471D02*
X159107143Y-100571185D01*
X185428572Y-116499757D02*
X185285715Y-116428328D01*
X185285715Y-116428328D02*
X185071429Y-116428328D01*
X185071429Y-116428328D02*
X184857143Y-116499757D01*
X184857143Y-116499757D02*
X184714286Y-116642614D01*
X184714286Y-116642614D02*
X184642857Y-116785471D01*
X184642857Y-116785471D02*
X184571429Y-117071185D01*
X184571429Y-117071185D02*
X184571429Y-117285471D01*
X184571429Y-117285471D02*
X184642857Y-117571185D01*
X184642857Y-117571185D02*
X184714286Y-117714042D01*
X184714286Y-117714042D02*
X184857143Y-117856900D01*
X184857143Y-117856900D02*
X185071429Y-117928328D01*
X185071429Y-117928328D02*
X185214286Y-117928328D01*
X185214286Y-117928328D02*
X185428572Y-117856900D01*
X185428572Y-117856900D02*
X185500000Y-117785471D01*
X185500000Y-117785471D02*
X185500000Y-117285471D01*
X185500000Y-117285471D02*
X185214286Y-117285471D01*
X186357143Y-116428328D02*
X186357143Y-116785471D01*
X186000000Y-116642614D02*
X186357143Y-116785471D01*
X186357143Y-116785471D02*
X186714286Y-116642614D01*
X186142857Y-117071185D02*
X186357143Y-116785471D01*
X186357143Y-116785471D02*
X186571429Y-117071185D01*
X187500000Y-116428328D02*
X187500000Y-116785471D01*
X187142857Y-116642614D02*
X187500000Y-116785471D01*
X187500000Y-116785471D02*
X187857143Y-116642614D01*
X187285714Y-117071185D02*
X187500000Y-116785471D01*
X187500000Y-116785471D02*
X187714286Y-117071185D01*
X188642857Y-116428328D02*
X188642857Y-116785471D01*
X188285714Y-116642614D02*
X188642857Y-116785471D01*
X188642857Y-116785471D02*
X189000000Y-116642614D01*
X188428571Y-117071185D02*
X188642857Y-116785471D01*
X188642857Y-116785471D02*
X188857143Y-117071185D01*
X161029735Y-111336579D02*
X160886878Y-111265150D01*
X160886878Y-111265150D02*
X160672592Y-111265150D01*
X160672592Y-111265150D02*
X160458306Y-111336579D01*
X160458306Y-111336579D02*
X160315449Y-111479436D01*
X160315449Y-111479436D02*
X160244020Y-111622293D01*
X160244020Y-111622293D02*
X160172592Y-111908007D01*
X160172592Y-111908007D02*
X160172592Y-112122293D01*
X160172592Y-112122293D02*
X160244020Y-112408007D01*
X160244020Y-112408007D02*
X160315449Y-112550864D01*
X160315449Y-112550864D02*
X160458306Y-112693722D01*
X160458306Y-112693722D02*
X160672592Y-112765150D01*
X160672592Y-112765150D02*
X160815449Y-112765150D01*
X160815449Y-112765150D02*
X161029735Y-112693722D01*
X161029735Y-112693722D02*
X161101163Y-112622293D01*
X161101163Y-112622293D02*
X161101163Y-112122293D01*
X161101163Y-112122293D02*
X160815449Y-112122293D01*
X161958306Y-111265150D02*
X161958306Y-111622293D01*
X161601163Y-111479436D02*
X161958306Y-111622293D01*
X161958306Y-111622293D02*
X162315449Y-111479436D01*
X161744020Y-111908007D02*
X161958306Y-111622293D01*
X161958306Y-111622293D02*
X162172592Y-111908007D01*
X163101163Y-111265150D02*
X163101163Y-111622293D01*
X162744020Y-111479436D02*
X163101163Y-111622293D01*
X163101163Y-111622293D02*
X163458306Y-111479436D01*
X162886877Y-111908007D02*
X163101163Y-111622293D01*
X163101163Y-111622293D02*
X163315449Y-111908007D01*
X164244020Y-111265150D02*
X164244020Y-111622293D01*
X163886877Y-111479436D02*
X164244020Y-111622293D01*
X164244020Y-111622293D02*
X164601163Y-111479436D01*
X164029734Y-111908007D02*
X164244020Y-111622293D01*
X164244020Y-111622293D02*
X164458306Y-111908007D01*
D11*
X185331009Y-106455714D02*
X185378628Y-106312857D01*
X185378628Y-106312857D02*
X185426247Y-106265238D01*
X185426247Y-106265238D02*
X185521485Y-106217619D01*
X185521485Y-106217619D02*
X185664342Y-106217619D01*
X185664342Y-106217619D02*
X185759580Y-106265238D01*
X185759580Y-106265238D02*
X185807200Y-106312857D01*
X185807200Y-106312857D02*
X185854819Y-106408095D01*
X185854819Y-106408095D02*
X185854819Y-106789047D01*
X185854819Y-106789047D02*
X184854819Y-106789047D01*
X184854819Y-106789047D02*
X184854819Y-106455714D01*
X184854819Y-106455714D02*
X184902438Y-106360476D01*
X184902438Y-106360476D02*
X184950057Y-106312857D01*
X184950057Y-106312857D02*
X185045295Y-106265238D01*
X185045295Y-106265238D02*
X185140533Y-106265238D01*
X185140533Y-106265238D02*
X185235771Y-106312857D01*
X185235771Y-106312857D02*
X185283390Y-106360476D01*
X185283390Y-106360476D02*
X185331009Y-106455714D01*
X185331009Y-106455714D02*
X185331009Y-106789047D01*
X184854819Y-105931904D02*
X184854819Y-105360476D01*
X185854819Y-105646190D02*
X184854819Y-105646190D01*
X184950057Y-105074761D02*
X184902438Y-105027142D01*
X184902438Y-105027142D02*
X184854819Y-104931904D01*
X184854819Y-104931904D02*
X184854819Y-104693809D01*
X184854819Y-104693809D02*
X184902438Y-104598571D01*
X184902438Y-104598571D02*
X184950057Y-104550952D01*
X184950057Y-104550952D02*
X185045295Y-104503333D01*
X185045295Y-104503333D02*
X185140533Y-104503333D01*
X185140533Y-104503333D02*
X185283390Y-104550952D01*
X185283390Y-104550952D02*
X185854819Y-105122380D01*
X185854819Y-105122380D02*
X185854819Y-104503333D01*
X207861009Y-106340714D02*
X207908628Y-106197857D01*
X207908628Y-106197857D02*
X207956247Y-106150238D01*
X207956247Y-106150238D02*
X208051485Y-106102619D01*
X208051485Y-106102619D02*
X208194342Y-106102619D01*
X208194342Y-106102619D02*
X208289580Y-106150238D01*
X208289580Y-106150238D02*
X208337200Y-106197857D01*
X208337200Y-106197857D02*
X208384819Y-106293095D01*
X208384819Y-106293095D02*
X208384819Y-106674047D01*
X208384819Y-106674047D02*
X207384819Y-106674047D01*
X207384819Y-106674047D02*
X207384819Y-106340714D01*
X207384819Y-106340714D02*
X207432438Y-106245476D01*
X207432438Y-106245476D02*
X207480057Y-106197857D01*
X207480057Y-106197857D02*
X207575295Y-106150238D01*
X207575295Y-106150238D02*
X207670533Y-106150238D01*
X207670533Y-106150238D02*
X207765771Y-106197857D01*
X207765771Y-106197857D02*
X207813390Y-106245476D01*
X207813390Y-106245476D02*
X207861009Y-106340714D01*
X207861009Y-106340714D02*
X207861009Y-106674047D01*
X207384819Y-105816904D02*
X207384819Y-105245476D01*
X208384819Y-105531190D02*
X207384819Y-105531190D01*
X208384819Y-104388333D02*
X208384819Y-104959761D01*
X208384819Y-104674047D02*
X207384819Y-104674047D01*
X207384819Y-104674047D02*
X207527676Y-104769285D01*
X207527676Y-104769285D02*
X207622914Y-104864523D01*
X207622914Y-104864523D02*
X207670533Y-104959761D01*
X152238095Y-113254819D02*
X152238095Y-112254819D01*
X152238095Y-112731009D02*
X152809523Y-112731009D01*
X152809523Y-113254819D02*
X152809523Y-112254819D01*
X153714285Y-112588152D02*
X153714285Y-113254819D01*
X153476190Y-112207200D02*
X153238095Y-112921485D01*
X153238095Y-112921485D02*
X153857142Y-112921485D01*
X216238095Y-112754819D02*
X216238095Y-111754819D01*
X216238095Y-112231009D02*
X216809523Y-112231009D01*
X216809523Y-112754819D02*
X216809523Y-111754819D01*
X217190476Y-111754819D02*
X217809523Y-111754819D01*
X217809523Y-111754819D02*
X217476190Y-112135771D01*
X217476190Y-112135771D02*
X217619047Y-112135771D01*
X217619047Y-112135771D02*
X217714285Y-112183390D01*
X217714285Y-112183390D02*
X217761904Y-112231009D01*
X217761904Y-112231009D02*
X217809523Y-112326247D01*
X217809523Y-112326247D02*
X217809523Y-112564342D01*
X217809523Y-112564342D02*
X217761904Y-112659580D01*
X217761904Y-112659580D02*
X217714285Y-112707200D01*
X217714285Y-112707200D02*
X217619047Y-112754819D01*
X217619047Y-112754819D02*
X217333333Y-112754819D01*
X217333333Y-112754819D02*
X217238095Y-112707200D01*
X217238095Y-112707200D02*
X217190476Y-112659580D01*
X210785714Y-121154819D02*
X210785714Y-120154819D01*
X210785714Y-120154819D02*
X211119047Y-120869104D01*
X211119047Y-120869104D02*
X211452380Y-120154819D01*
X211452380Y-120154819D02*
X211452380Y-121154819D01*
X212071428Y-121154819D02*
X211976190Y-121107200D01*
X211976190Y-121107200D02*
X211928571Y-121059580D01*
X211928571Y-121059580D02*
X211880952Y-120964342D01*
X211880952Y-120964342D02*
X211880952Y-120678628D01*
X211880952Y-120678628D02*
X211928571Y-120583390D01*
X211928571Y-120583390D02*
X211976190Y-120535771D01*
X211976190Y-120535771D02*
X212071428Y-120488152D01*
X212071428Y-120488152D02*
X212214285Y-120488152D01*
X212214285Y-120488152D02*
X212309523Y-120535771D01*
X212309523Y-120535771D02*
X212357142Y-120583390D01*
X212357142Y-120583390D02*
X212404761Y-120678628D01*
X212404761Y-120678628D02*
X212404761Y-120964342D01*
X212404761Y-120964342D02*
X212357142Y-121059580D01*
X212357142Y-121059580D02*
X212309523Y-121107200D01*
X212309523Y-121107200D02*
X212214285Y-121154819D01*
X212214285Y-121154819D02*
X212071428Y-121154819D01*
X213261904Y-120488152D02*
X213261904Y-121154819D01*
X212833333Y-120488152D02*
X212833333Y-121011961D01*
X212833333Y-121011961D02*
X212880952Y-121107200D01*
X212880952Y-121107200D02*
X212976190Y-121154819D01*
X212976190Y-121154819D02*
X213119047Y-121154819D01*
X213119047Y-121154819D02*
X213214285Y-121107200D01*
X213214285Y-121107200D02*
X213261904Y-121059580D01*
X213738095Y-120488152D02*
X213738095Y-121154819D01*
X213738095Y-120583390D02*
X213785714Y-120535771D01*
X213785714Y-120535771D02*
X213880952Y-120488152D01*
X213880952Y-120488152D02*
X214023809Y-120488152D01*
X214023809Y-120488152D02*
X214119047Y-120535771D01*
X214119047Y-120535771D02*
X214166666Y-120631009D01*
X214166666Y-120631009D02*
X214166666Y-121154819D01*
X214500000Y-120488152D02*
X214880952Y-120488152D01*
X214642857Y-120154819D02*
X214642857Y-121011961D01*
X214642857Y-121011961D02*
X214690476Y-121107200D01*
X214690476Y-121107200D02*
X214785714Y-121154819D01*
X214785714Y-121154819D02*
X214880952Y-121154819D01*
X215214286Y-121154819D02*
X215214286Y-120488152D01*
X215214286Y-120154819D02*
X215166667Y-120202438D01*
X215166667Y-120202438D02*
X215214286Y-120250057D01*
X215214286Y-120250057D02*
X215261905Y-120202438D01*
X215261905Y-120202438D02*
X215214286Y-120154819D01*
X215214286Y-120154819D02*
X215214286Y-120250057D01*
X215690476Y-120488152D02*
X215690476Y-121154819D01*
X215690476Y-120583390D02*
X215738095Y-120535771D01*
X215738095Y-120535771D02*
X215833333Y-120488152D01*
X215833333Y-120488152D02*
X215976190Y-120488152D01*
X215976190Y-120488152D02*
X216071428Y-120535771D01*
X216071428Y-120535771D02*
X216119047Y-120631009D01*
X216119047Y-120631009D02*
X216119047Y-121154819D01*
X217023809Y-120488152D02*
X217023809Y-121297676D01*
X217023809Y-121297676D02*
X216976190Y-121392914D01*
X216976190Y-121392914D02*
X216928571Y-121440533D01*
X216928571Y-121440533D02*
X216833333Y-121488152D01*
X216833333Y-121488152D02*
X216690476Y-121488152D01*
X216690476Y-121488152D02*
X216595238Y-121440533D01*
X217023809Y-121107200D02*
X216928571Y-121154819D01*
X216928571Y-121154819D02*
X216738095Y-121154819D01*
X216738095Y-121154819D02*
X216642857Y-121107200D01*
X216642857Y-121107200D02*
X216595238Y-121059580D01*
X216595238Y-121059580D02*
X216547619Y-120964342D01*
X216547619Y-120964342D02*
X216547619Y-120678628D01*
X216547619Y-120678628D02*
X216595238Y-120583390D01*
X216595238Y-120583390D02*
X216642857Y-120535771D01*
X216642857Y-120535771D02*
X216738095Y-120488152D01*
X216738095Y-120488152D02*
X216928571Y-120488152D01*
X216928571Y-120488152D02*
X217023809Y-120535771D01*
X217500000Y-121154819D02*
X217500000Y-120154819D01*
X217500000Y-120631009D02*
X218071428Y-120631009D01*
X218071428Y-121154819D02*
X218071428Y-120154819D01*
X218690476Y-121154819D02*
X218595238Y-121107200D01*
X218595238Y-121107200D02*
X218547619Y-121059580D01*
X218547619Y-121059580D02*
X218500000Y-120964342D01*
X218500000Y-120964342D02*
X218500000Y-120678628D01*
X218500000Y-120678628D02*
X218547619Y-120583390D01*
X218547619Y-120583390D02*
X218595238Y-120535771D01*
X218595238Y-120535771D02*
X218690476Y-120488152D01*
X218690476Y-120488152D02*
X218833333Y-120488152D01*
X218833333Y-120488152D02*
X218928571Y-120535771D01*
X218928571Y-120535771D02*
X218976190Y-120583390D01*
X218976190Y-120583390D02*
X219023809Y-120678628D01*
X219023809Y-120678628D02*
X219023809Y-120964342D01*
X219023809Y-120964342D02*
X218976190Y-121059580D01*
X218976190Y-121059580D02*
X218928571Y-121107200D01*
X218928571Y-121107200D02*
X218833333Y-121154819D01*
X218833333Y-121154819D02*
X218690476Y-121154819D01*
X219595238Y-121154819D02*
X219500000Y-121107200D01*
X219500000Y-121107200D02*
X219452381Y-121011961D01*
X219452381Y-121011961D02*
X219452381Y-120154819D01*
X220357143Y-121107200D02*
X220261905Y-121154819D01*
X220261905Y-121154819D02*
X220071429Y-121154819D01*
X220071429Y-121154819D02*
X219976191Y-121107200D01*
X219976191Y-121107200D02*
X219928572Y-121011961D01*
X219928572Y-121011961D02*
X219928572Y-120631009D01*
X219928572Y-120631009D02*
X219976191Y-120535771D01*
X219976191Y-120535771D02*
X220071429Y-120488152D01*
X220071429Y-120488152D02*
X220261905Y-120488152D01*
X220261905Y-120488152D02*
X220357143Y-120535771D01*
X220357143Y-120535771D02*
X220404762Y-120631009D01*
X220404762Y-120631009D02*
X220404762Y-120726247D01*
X220404762Y-120726247D02*
X219928572Y-120821485D01*
X220595239Y-121250057D02*
X221357143Y-121250057D01*
X221595239Y-121154819D02*
X221595239Y-120154819D01*
X221595239Y-120154819D02*
X221928572Y-120869104D01*
X221928572Y-120869104D02*
X222261905Y-120154819D01*
X222261905Y-120154819D02*
X222261905Y-121154819D01*
X222642858Y-120154819D02*
X223261905Y-120154819D01*
X223261905Y-120154819D02*
X222928572Y-120535771D01*
X222928572Y-120535771D02*
X223071429Y-120535771D01*
X223071429Y-120535771D02*
X223166667Y-120583390D01*
X223166667Y-120583390D02*
X223214286Y-120631009D01*
X223214286Y-120631009D02*
X223261905Y-120726247D01*
X223261905Y-120726247D02*
X223261905Y-120964342D01*
X223261905Y-120964342D02*
X223214286Y-121059580D01*
X223214286Y-121059580D02*
X223166667Y-121107200D01*
X223166667Y-121107200D02*
X223071429Y-121154819D01*
X223071429Y-121154819D02*
X222785715Y-121154819D01*
X222785715Y-121154819D02*
X222690477Y-121107200D01*
X222690477Y-121107200D02*
X222642858Y-121059580D01*
X216738095Y-29254819D02*
X216738095Y-28254819D01*
X216738095Y-28731009D02*
X217309523Y-28731009D01*
X217309523Y-29254819D02*
X217309523Y-28254819D01*
X217738095Y-28350057D02*
X217785714Y-28302438D01*
X217785714Y-28302438D02*
X217880952Y-28254819D01*
X217880952Y-28254819D02*
X218119047Y-28254819D01*
X218119047Y-28254819D02*
X218214285Y-28302438D01*
X218214285Y-28302438D02*
X218261904Y-28350057D01*
X218261904Y-28350057D02*
X218309523Y-28445295D01*
X218309523Y-28445295D02*
X218309523Y-28540533D01*
X218309523Y-28540533D02*
X218261904Y-28683390D01*
X218261904Y-28683390D02*
X217690476Y-29254819D01*
X217690476Y-29254819D02*
X218309523Y-29254819D01*
X151738095Y-29254819D02*
X151738095Y-28254819D01*
X151738095Y-28731009D02*
X152309523Y-28731009D01*
X152309523Y-29254819D02*
X152309523Y-28254819D01*
X153309523Y-29254819D02*
X152738095Y-29254819D01*
X153023809Y-29254819D02*
X153023809Y-28254819D01*
X153023809Y-28254819D02*
X152928571Y-28397676D01*
X152928571Y-28397676D02*
X152833333Y-28492914D01*
X152833333Y-28492914D02*
X152738095Y-28540533D01*
D10*
X158678572Y-90249757D02*
X158535715Y-90178328D01*
X158535715Y-90178328D02*
X158321429Y-90178328D01*
X158321429Y-90178328D02*
X158107143Y-90249757D01*
X158107143Y-90249757D02*
X157964286Y-90392614D01*
X157964286Y-90392614D02*
X157892857Y-90535471D01*
X157892857Y-90535471D02*
X157821429Y-90821185D01*
X157821429Y-90821185D02*
X157821429Y-91035471D01*
X157821429Y-91035471D02*
X157892857Y-91321185D01*
X157892857Y-91321185D02*
X157964286Y-91464042D01*
X157964286Y-91464042D02*
X158107143Y-91606900D01*
X158107143Y-91606900D02*
X158321429Y-91678328D01*
X158321429Y-91678328D02*
X158464286Y-91678328D01*
X158464286Y-91678328D02*
X158678572Y-91606900D01*
X158678572Y-91606900D02*
X158750000Y-91535471D01*
X158750000Y-91535471D02*
X158750000Y-91035471D01*
X158750000Y-91035471D02*
X158464286Y-91035471D01*
X159607143Y-90178328D02*
X159607143Y-90535471D01*
X159250000Y-90392614D02*
X159607143Y-90535471D01*
X159607143Y-90535471D02*
X159964286Y-90392614D01*
X159392857Y-90821185D02*
X159607143Y-90535471D01*
X159607143Y-90535471D02*
X159821429Y-90821185D01*
X160750000Y-90178328D02*
X160750000Y-90535471D01*
X160392857Y-90392614D02*
X160750000Y-90535471D01*
X160750000Y-90535471D02*
X161107143Y-90392614D01*
X160535714Y-90821185D02*
X160750000Y-90535471D01*
X160750000Y-90535471D02*
X160964286Y-90821185D01*
X161892857Y-90178328D02*
X161892857Y-90535471D01*
X161535714Y-90392614D02*
X161892857Y-90535471D01*
X161892857Y-90535471D02*
X162250000Y-90392614D01*
X161678571Y-90821185D02*
X161892857Y-90535471D01*
X161892857Y-90535471D02*
X162107143Y-90821185D01*
D11*
%TO.C,H4*%
X156200000Y-117000000D02*
G75*
G02*
X149800000Y-117000000I-3200000J0D01*
G01*
X149800000Y-117000000D02*
G75*
G02*
X156200000Y-117000000I3200000J0D01*
G01*
%TO.C,H3*%
X220200000Y-116500000D02*
G75*
G02*
X213800000Y-116500000I-3200000J0D01*
G01*
X213800000Y-116500000D02*
G75*
G02*
X220200000Y-116500000I3200000J0D01*
G01*
%TO.C,H2*%
X220700000Y-33000000D02*
G75*
G02*
X214300000Y-33000000I-3200000J0D01*
G01*
X214300000Y-33000000D02*
G75*
G02*
X220700000Y-33000000I3200000J0D01*
G01*
%TO.C,H1*%
X155700000Y-33000000D02*
G75*
G02*
X149300000Y-33000000I-3200000J0D01*
G01*
X149300000Y-33000000D02*
G75*
G02*
X155700000Y-33000000I3200000J0D01*
G01*
%TD*%
M02*
