%TF.GenerationSoftware,KiCad,Pcbnew,8.0.4*%
%TF.CreationDate,2024-08-28T17:55:56-04:00*%
%TF.ProjectId,imu-array,696d752d-6172-4726-9179-2e6b69636164,rev?*%
%TF.SameCoordinates,Original*%
%TF.FileFunction,Copper,L4,Bot*%
%TF.FilePolarity,Positive*%
%FSLAX46Y46*%
G04 Gerber Fmt 4.6, Leading zero omitted, Abs format (unit mm)*
G04 Created by KiCad (PCBNEW 8.0.4) date 2024-08-28 17:55:56*
%MOMM*%
%LPD*%
G01*
G04 APERTURE LIST*
%TA.AperFunction,ComponentPad*%
%ADD10O,4.140000X2.070000*%
%TD*%
%TA.AperFunction,ComponentPad*%
%ADD11O,1.800000X2.400000*%
%TD*%
%TA.AperFunction,ViaPad*%
%ADD12C,0.600000*%
%TD*%
%TA.AperFunction,Conductor*%
%ADD13C,1.000000*%
%TD*%
G04 APERTURE END LIST*
D10*
%TO.P,BT2,-*%
%TO.N,GND*%
X173970000Y-33615000D03*
%TO.P,BT2,+*%
%TO.N,BATT+*%
X173970000Y-106515000D03*
%TD*%
%TO.P,BT1,-*%
%TO.N,GND*%
X196500000Y-33500000D03*
%TO.P,BT1,+*%
%TO.N,BATT+*%
X196500000Y-106400000D03*
%TD*%
D11*
%TO.P,U9,1,INT*%
%TO.N,unconnected-(U9-INT-Pad1)*%
X200000000Y-73250000D03*
%TO.P,U9,2,ADO*%
%TO.N,MPU9*%
X202540000Y-73250000D03*
%TO.P,U9,3,XCL*%
%TO.N,unconnected-(U9-XCL-Pad3)*%
X205080000Y-73250000D03*
%TO.P,U9,4,XDA*%
%TO.N,unconnected-(U9-XDA-Pad4)*%
X207620000Y-73250000D03*
%TO.P,U9,5,SDA*%
%TO.N,SDA*%
X210160000Y-73250000D03*
%TO.P,U9,6,SCL*%
%TO.N,SCL*%
X212700000Y-73250000D03*
%TO.P,U9,7,GND*%
%TO.N,GND*%
X215240000Y-73250000D03*
%TO.P,U9,8,VCC*%
%TO.N,3v3*%
X217780000Y-73250000D03*
%TD*%
%TO.P,U8,1,INT*%
%TO.N,unconnected-(U8-INT-Pad1)*%
X176000000Y-73250000D03*
%TO.P,U8,2,ADO*%
%TO.N,MPU8*%
X178540000Y-73250000D03*
%TO.P,U8,3,XCL*%
%TO.N,unconnected-(U8-XCL-Pad3)*%
X181080000Y-73250000D03*
%TO.P,U8,4,XDA*%
%TO.N,unconnected-(U8-XDA-Pad4)*%
X183620000Y-73250000D03*
%TO.P,U8,5,SDA*%
%TO.N,SDA*%
X186160000Y-73250000D03*
%TO.P,U8,6,SCL*%
%TO.N,SCL*%
X188700000Y-73250000D03*
%TO.P,U8,7,GND*%
%TO.N,GND*%
X191240000Y-73250000D03*
%TO.P,U8,8,VCC*%
%TO.N,3v3*%
X193780000Y-73250000D03*
%TD*%
%TO.P,U7,1,INT*%
%TO.N,unconnected-(U7-INT-Pad1)*%
X152000000Y-73250000D03*
%TO.P,U7,2,ADO*%
%TO.N,MPU7*%
X154540000Y-73250000D03*
%TO.P,U7,3,XCL*%
%TO.N,unconnected-(U7-XCL-Pad3)*%
X157080000Y-73250000D03*
%TO.P,U7,4,XDA*%
%TO.N,unconnected-(U7-XDA-Pad4)*%
X159620000Y-73250000D03*
%TO.P,U7,5,SDA*%
%TO.N,SDA*%
X162160000Y-73250000D03*
%TO.P,U7,6,SCL*%
%TO.N,SCL*%
X164700000Y-73250000D03*
%TO.P,U7,7,GND*%
%TO.N,GND*%
X167240000Y-73250000D03*
%TO.P,U7,8,VCC*%
%TO.N,3v3*%
X169780000Y-73250000D03*
%TD*%
%TO.P,U6,1,INT*%
%TO.N,unconnected-(U6-INT-Pad1)*%
X200000000Y-56250000D03*
%TO.P,U6,2,ADO*%
%TO.N,MPU6*%
X202540000Y-56250000D03*
%TO.P,U6,3,XCL*%
%TO.N,unconnected-(U6-XCL-Pad3)*%
X205080000Y-56250000D03*
%TO.P,U6,4,XDA*%
%TO.N,unconnected-(U6-XDA-Pad4)*%
X207620000Y-56250000D03*
%TO.P,U6,5,SDA*%
%TO.N,SDA*%
X210160000Y-56250000D03*
%TO.P,U6,6,SCL*%
%TO.N,SCL*%
X212700000Y-56250000D03*
%TO.P,U6,7,GND*%
%TO.N,GND*%
X215240000Y-56250000D03*
%TO.P,U6,8,VCC*%
%TO.N,3v3*%
X217780000Y-56250000D03*
%TD*%
%TO.P,U5,1,INT*%
%TO.N,unconnected-(U5-INT-Pad1)*%
X176000000Y-56250000D03*
%TO.P,U5,2,ADO*%
%TO.N,MPU5*%
X178540000Y-56250000D03*
%TO.P,U5,3,XCL*%
%TO.N,unconnected-(U5-XCL-Pad3)*%
X181080000Y-56250000D03*
%TO.P,U5,4,XDA*%
%TO.N,unconnected-(U5-XDA-Pad4)*%
X183620000Y-56250000D03*
%TO.P,U5,5,SDA*%
%TO.N,SDA*%
X186160000Y-56250000D03*
%TO.P,U5,6,SCL*%
%TO.N,SCL*%
X188700000Y-56250000D03*
%TO.P,U5,7,GND*%
%TO.N,GND*%
X191240000Y-56250000D03*
%TO.P,U5,8,VCC*%
%TO.N,3v3*%
X193780000Y-56250000D03*
%TD*%
%TO.P,U4,1,INT*%
%TO.N,unconnected-(U4-INT-Pad1)*%
X151960000Y-56250000D03*
%TO.P,U4,2,ADO*%
%TO.N,MPU4*%
X154500000Y-56250000D03*
%TO.P,U4,3,XCL*%
%TO.N,unconnected-(U4-XCL-Pad3)*%
X157040000Y-56250000D03*
%TO.P,U4,4,XDA*%
%TO.N,unconnected-(U4-XDA-Pad4)*%
X159580000Y-56250000D03*
%TO.P,U4,5,SDA*%
%TO.N,SDA*%
X162120000Y-56250000D03*
%TO.P,U4,6,SCL*%
%TO.N,SCL*%
X164660000Y-56250000D03*
%TO.P,U4,7,GND*%
%TO.N,GND*%
X167200000Y-56250000D03*
%TO.P,U4,8,VCC*%
%TO.N,3v3*%
X169740000Y-56250000D03*
%TD*%
%TO.P,U3,1,INT*%
%TO.N,unconnected-(U3-INT-Pad1)*%
X200000000Y-39500000D03*
%TO.P,U3,2,ADO*%
%TO.N,MPU3*%
X202540000Y-39500000D03*
%TO.P,U3,3,XCL*%
%TO.N,unconnected-(U3-XCL-Pad3)*%
X205080000Y-39500000D03*
%TO.P,U3,4,XDA*%
%TO.N,unconnected-(U3-XDA-Pad4)*%
X207620000Y-39500000D03*
%TO.P,U3,5,SDA*%
%TO.N,SDA*%
X210160000Y-39500000D03*
%TO.P,U3,6,SCL*%
%TO.N,SCL*%
X212700000Y-39500000D03*
%TO.P,U3,7,GND*%
%TO.N,GND*%
X215240000Y-39500000D03*
%TO.P,U3,8,VCC*%
%TO.N,3v3*%
X217780000Y-39500000D03*
%TD*%
%TO.P,U2,1,INT*%
%TO.N,unconnected-(U2-INT-Pad1)*%
X176000000Y-39500000D03*
%TO.P,U2,2,ADO*%
%TO.N,MPU2*%
X178540000Y-39500000D03*
%TO.P,U2,3,XCL*%
%TO.N,unconnected-(U2-XCL-Pad3)*%
X181080000Y-39500000D03*
%TO.P,U2,4,XDA*%
%TO.N,unconnected-(U2-XDA-Pad4)*%
X183620000Y-39500000D03*
%TO.P,U2,5,SDA*%
%TO.N,SDA*%
X186160000Y-39500000D03*
%TO.P,U2,6,SCL*%
%TO.N,SCL*%
X188700000Y-39500000D03*
%TO.P,U2,7,GND*%
%TO.N,GND*%
X191240000Y-39500000D03*
%TO.P,U2,8,VCC*%
%TO.N,3v3*%
X193780000Y-39500000D03*
%TD*%
%TO.P,U1,1,INT*%
%TO.N,unconnected-(U1-INT-Pad1)*%
X152000000Y-39500000D03*
%TO.P,U1,2,ADO*%
%TO.N,MPU1*%
X154540000Y-39500000D03*
%TO.P,U1,3,XCL*%
%TO.N,unconnected-(U1-XCL-Pad3)*%
X157080000Y-39500000D03*
%TO.P,U1,4,XDA*%
%TO.N,unconnected-(U1-XDA-Pad4)*%
X159620000Y-39500000D03*
%TO.P,U1,5,SDA*%
%TO.N,SDA*%
X162160000Y-39500000D03*
%TO.P,U1,6,SCL*%
%TO.N,SCL*%
X164700000Y-39500000D03*
%TO.P,U1,7,GND*%
%TO.N,GND*%
X167240000Y-39500000D03*
%TO.P,U1,8,VCC*%
%TO.N,3v3*%
X169780000Y-39500000D03*
%TD*%
D12*
%TO.N,BATT+*%
X218810000Y-109750000D03*
%TO.N,MPU2*%
X214000000Y-98000000D03*
X178500000Y-47000000D03*
%TO.N,MPU5*%
X203000000Y-98000000D03*
X177000000Y-60000000D03*
%TO.N,SDA*%
X186160000Y-46000000D03*
X210160000Y-45500000D03*
X170550000Y-109750000D03*
%TO.N,SCL*%
X173090000Y-109750000D03*
%TO.N,3v3*%
X209000000Y-109000000D03*
%TO.N,GND*%
X214000000Y-109000000D03*
X201000000Y-109000000D03*
X188000000Y-110000000D03*
X176000000Y-110000000D03*
X176000000Y-90000000D03*
X188000000Y-90000000D03*
X201000000Y-90000000D03*
X214000000Y-90000000D03*
%TD*%
D13*
%TO.N,SCL*%
X212700000Y-39800000D02*
X212700000Y-39500000D01*
X207750000Y-44750000D02*
X212700000Y-39800000D01*
X188700000Y-39522742D02*
X193927258Y-44750000D01*
X193927258Y-44750000D02*
X207750000Y-44750000D01*
X169000000Y-45000000D02*
X183222742Y-45000000D01*
X164700000Y-40700000D02*
X169000000Y-45000000D01*
X183222742Y-45000000D02*
X188700000Y-39522742D01*
X164700000Y-39500000D02*
X164700000Y-40700000D01*
%TO.N,MPU5*%
X199750000Y-101250000D02*
X203000000Y-98000000D01*
X174400000Y-62600000D02*
X174400000Y-81900000D01*
X193750000Y-101250000D02*
X199750000Y-101250000D01*
X177000000Y-60000000D02*
X174400000Y-62600000D01*
X174400000Y-81900000D02*
X193750000Y-101250000D01*
%TO.N,SCL*%
X164700000Y-101700000D02*
X164700000Y-73250000D01*
X173090000Y-109750000D02*
X172750000Y-109750000D01*
X172750000Y-109750000D02*
X164700000Y-101700000D01*
%TO.N,MPU2*%
X209500000Y-102500000D02*
X214000000Y-98000000D01*
X173200000Y-82700000D02*
X193000000Y-102500000D01*
X175000000Y-47000000D02*
X173200000Y-48800000D01*
X178500000Y-47000000D02*
X175000000Y-47000000D01*
X173200000Y-48800000D02*
X173200000Y-82700000D01*
X193000000Y-102500000D02*
X209500000Y-102500000D01*
%TO.N,SDA*%
X186160000Y-46000000D02*
X186160000Y-56250000D01*
X210160000Y-45500000D02*
X210160000Y-56250000D01*
%TO.N,BATT+*%
X216110000Y-106110000D02*
X218810000Y-108810000D01*
X218810000Y-108810000D02*
X218810000Y-109750000D01*
X197530000Y-106110000D02*
X216110000Y-106110000D01*
X175000000Y-106110000D02*
X197530000Y-106110000D01*
%TO.N,SDA*%
X186160000Y-73250000D02*
X186160000Y-56250000D01*
X210160000Y-56250000D02*
X210160000Y-73250000D01*
%TO.N,SCL*%
X212700000Y-73250000D02*
X212700000Y-56250000D01*
X188700000Y-56250000D02*
X188700000Y-73250000D01*
X188700000Y-39500000D02*
X188700000Y-56250000D01*
X212700000Y-39500000D02*
X212700000Y-56250000D01*
X188700000Y-39500000D02*
X188700000Y-39522742D01*
%TO.N,SDA*%
X210160000Y-39200000D02*
X210160000Y-39500000D01*
X188360000Y-37000000D02*
X207960000Y-37000000D01*
X186160000Y-39200000D02*
X188360000Y-37000000D01*
X207960000Y-37000000D02*
X210160000Y-39200000D01*
X186160000Y-39500000D02*
X186160000Y-39200000D01*
X183960000Y-37000000D02*
X186160000Y-39200000D01*
X163160000Y-37000000D02*
X183960000Y-37000000D01*
X162160000Y-38000000D02*
X163160000Y-37000000D01*
X162160000Y-39500000D02*
X162160000Y-38000000D01*
X162160000Y-101360000D02*
X170550000Y-109750000D01*
X162160000Y-73250000D02*
X162160000Y-101360000D01*
X162120000Y-73210000D02*
X162160000Y-73250000D01*
X162120000Y-56250000D02*
X162120000Y-73210000D01*
X162160000Y-56210000D02*
X162120000Y-56250000D01*
X162160000Y-39500000D02*
X162160000Y-56210000D01*
%TO.N,SCL*%
X164660000Y-39540000D02*
X164700000Y-39500000D01*
X164660000Y-56250000D02*
X164660000Y-39540000D01*
X164660000Y-72660000D02*
X164660000Y-56250000D01*
X164700000Y-72700000D02*
X164660000Y-72660000D01*
X164700000Y-73250000D02*
X164700000Y-72700000D01*
%TD*%
M02*
